<svg width="172" height="165" viewBox="0 0 172 165" fill="none" xmlns="http://www.w3.org/2000/svg">
<path d="M169.268 1.19922L158.775 17.9883H14.2515L23.9048 1.19922H169.268Z" stroke="#C0C0C2" stroke-width="2.39839"/>
<rect x="24.8896" y="1.19919" width="16.7887" height="16.7887" stroke="#C0C0C2" stroke-width="2.39839"/>
<rect x="44.0768" y="1.19919" width="16.7887" height="16.7887" stroke="#C0C0C2" stroke-width="2.39839"/>
<rect x="63.2639" y="1.19919" width="16.7887" height="16.7887" stroke="#C0C0C2" stroke-width="2.39839"/>
<rect x="82.451" y="1.19919" width="16.7887" height="16.7887" stroke="#C0C0C2" stroke-width="2.39839"/>
<rect x="101.638" y="1.19919" width="16.7887" height="16.7887" stroke="#C0C0C2" stroke-width="2.39839"/>
<rect x="120.825" y="1.19919" width="16.7887" height="16.7887" stroke="#C0C0C2" stroke-width="2.39839"/>
<rect x="140.012" y="1.19919" width="16.7887" height="16.7887" stroke="#C0C0C2" stroke-width="2.39839"/>
<rect x="16.0691" y="18.8987" width="16.1194" height="5.00259" fill="#C0C0C2"/>
<path d="M138.094 162.366L121.305 151.874L121.305 17.5083L138.094 17.5083L138.094 162.366Z" stroke="#C0C0C2" stroke-width="2.39839"/>
<rect x="138.094" y="17.9879" width="16.7887" height="16.7887" transform="rotate(90 138.094 17.9879)" stroke="#C0C0C2" stroke-width="2.39839"/>
<rect x="138.094" y="37.1751" width="16.7887" height="16.7887" transform="rotate(90 138.094 37.1751)" stroke="#C0C0C2" stroke-width="2.39839"/>
<rect x="138.094" y="56.3621" width="16.7887" height="16.7887" transform="rotate(90 138.094 56.3621)" stroke="#C0C0C2" stroke-width="2.39839"/>
<rect x="138.094" y="75.5493" width="16.7887" height="16.7887" transform="rotate(90 138.094 75.5493)" stroke="#C0C0C2" stroke-width="2.39839"/>
<rect x="138.094" y="94.7364" width="16.7887" height="16.7887" transform="rotate(90 138.094 94.7364)" stroke="#C0C0C2" stroke-width="2.39839"/>
<rect x="138.094" y="113.923" width="16.7887" height="16.7887" transform="rotate(90 138.094 113.923)" stroke="#C0C0C2" stroke-width="2.39839"/>
<rect x="138.094" y="133.111" width="16.7887" height="16.7887" transform="rotate(90 138.094 133.111)" stroke="#C0C0C2" stroke-width="2.39839"/>
<path d="M23.851 22.5116V33.6285" stroke="#C0C0C2" stroke-width="2.39839"/>
<rect x="110.007" y="143.963" width="38.909" height="20.5662" fill="#989898"/>
<rect x="23.9647" y="26.1246" width="33.1762" height="33.1762" rx="4.44674" transform="rotate(45 23.9647 26.1246)" fill="#EF970E"/>
<path d="M25.7362 41.6882L25.3759 52.3776H22.7558L22.3846 41.6882H25.7362ZM22.2972 55.687C22.2972 55.2359 22.4574 54.8623 22.7776 54.5663C23.1051 54.2632 23.5345 54.1116 24.0658 54.1116C24.6044 54.1116 25.0338 54.2632 25.3541 54.5663C25.6743 54.8623 25.8344 55.2359 25.8344 55.687C25.8344 56.124 25.6743 56.4941 25.3541 56.7972C25.0338 57.1003 24.6044 57.2518 24.0658 57.2518C23.5345 57.2518 23.1051 57.1003 22.7776 56.7972C22.4574 56.4941 22.2972 56.124 22.2972 55.687Z" fill="black"/>
</svg>
