<svg width="245" height="78" viewBox="0 0 245 78" fill="none" xmlns="http://www.w3.org/2000/svg">
<path d="M0.688965 20.8118H236.179C240.22 20.8118 242.974 24.904 241.453 28.6476L226.134 66.3563H19.9578C19.4945 66.3563 19.0774 66.0756 18.903 65.6463L0.688965 20.8118Z" fill="#2D3F50"/>
<path d="M0.688965 77.7424H226.134V64.079H19.1914L0.688965 77.7424Z" fill="#BA1A1A"/>
<rect x="0.688965" y="10.5643" width="54.6534" height="10.2475" fill="#2D3F50"/>
<rect x="0.688965" y="0.316772" width="54.6534" height="10.2475" fill="#FEFEFF"/>
<rect x="42.8177" y="33.3365" width="2.27723" height="18.2178" fill="white"/>
<path d="M52.4959 43.584C52.4959 44.7054 52.275 45.8159 51.8458 46.852C51.4167 47.888 50.7877 48.8294 49.9947 49.6224C49.2017 50.4154 48.2603 51.0444 47.2242 51.4736C46.1882 51.9027 45.0777 52.1236 43.9563 52.1236C42.8348 52.1236 41.7244 51.9027 40.6883 51.4736C39.6522 51.0444 38.7109 50.4154 37.9179 49.6224C37.1249 48.8294 36.4959 47.888 36.0667 46.852C35.6376 45.8159 35.4167 44.7054 35.4167 43.584" stroke="white" stroke-width="2.27723"/>
<circle cx="43.9563" cy="31.0593" r="3.41584" stroke="white" stroke-width="2.27723"/>
</svg>
